<?xml version="1.0" encoding="UTF-8" standalone="no"?>
<!DOCTYPE svg PUBLIC "-//W3C//DTD SVG 1.1//EN"
 "http://www.w3.org/Graphics/SVG/1.1/DTD/svg11.dtd">
<!-- Generated by graphviz version 2.40.1 (20161225.0304)
 -->
<!-- Title: %3 Pages: 1 -->
<svg width="478pt" height="247pt"
 viewBox="0.00 0.00 478.00 247.00" xmlns="http://www.w3.org/2000/svg" xmlns:xlink="http://www.w3.org/1999/xlink">
<g id="graph0" class="graph" transform="scale(1 1) rotate(0) translate(4 243)">
<title>%3</title>
<polygon fill="#ffffff" stroke="transparent" points="-4,4 -4,-243 474,-243 474,4 -4,4"/>
<g id="clust1" class="cluster">
<title>cluster_laptop</title>
<polygon fill="none" stroke="#000000" points="8,-8 8,-231 462,-231 462,-8 8,-8"/>
<text text-anchor="middle" x="235" y="-215.8" font-family="Times,serif" font-size="14.00" fill="#000000">Your Laptop</text>
</g>
<!-- pyspark -->
<g id="node1" class="node">
<title>pyspark</title>
<polygon fill="none" stroke="#000000" points="100.501,-182 25.499,-182 25.499,-146 100.501,-146 100.501,-182"/>
<text text-anchor="middle" x="63" y="-160.9484" font-family="menlo" font-size="14.00" fill="#000000">pyspark</text>
</g>
<!-- spark -->
<g id="node2" class="node">
<title>spark</title>
<polygon fill="none" stroke="#000000" points="181,-175 181,-197 288,-197 288,-175 181,-175"/>
<text text-anchor="start" x="221.8569" y="-182.8" font-family="menlo" font-size="14.00" fill="#000000">JVM</text>
<polygon fill="none" stroke="#000000" points="181,-153 181,-175 288,-175 288,-153 181,-153"/>
<text text-anchor="start" x="183.9277" y="-160.8" font-family="menlo" font-size="14.00" fill="#000000">Spark Master</text>
<polygon fill="none" stroke="#000000" points="181,-131 181,-153 288,-153 288,-131 181,-131"/>
<text text-anchor="start" x="200.7852" y="-138.8" font-family="menlo" font-size="14.00" fill="#000000">Executor</text>
</g>
<!-- pyspark&#45;&gt;spark -->
<g id="edge1" class="edge">
<title>pyspark&#45;&gt;spark</title>
<path fill="none" stroke="#000000" d="M100.5267,-164C118.6072,-164 140.9195,-164 162.0909,-164"/>
<polygon fill="#000000" stroke="#000000" points="162.3689,-167.5001 172.3689,-164 162.3689,-160.5001 162.3689,-167.5001"/>
<text text-anchor="middle" x="136.5002" y="-169.8" font-family="Times,serif" font-size="14.00" fill="#000000">talks to</text>
</g>
<!-- p1 -->
<g id="node3" class="node">
<title>p1</title>
<polygon fill="none" stroke="#000000" points="150.002,-52 15.998,-52 15.998,-16 150.002,-16 150.002,-52"/>
<text text-anchor="middle" x="83" y="-30.9484" font-family="menlo" font-size="14.00" fill="#000000">Data Partition</text>
</g>
<!-- spark&#45;&gt;p1 -->
<g id="edge2" class="edge">
<title>spark:e&#45;&gt;p1</title>
<path fill="none" stroke="#000000" d="M181,-142C137.6339,-142 108.4277,-93.6537 93.8464,-61.6549"/>
<polygon fill="#000000" stroke="#000000" points="96.986,-60.0979 89.7912,-52.3207 90.5658,-62.8872 96.986,-60.0979"/>
</g>
<!-- p2 -->
<g id="node4" class="node">
<title>p2</title>
<polygon fill="none" stroke="#000000" points="302.002,-52 167.998,-52 167.998,-16 302.002,-16 302.002,-52"/>
<text text-anchor="middle" x="235" y="-30.9484" font-family="menlo" font-size="14.00" fill="#000000">Data Partition</text>
</g>
<!-- spark&#45;&gt;p2 -->
<g id="edge3" class="edge">
<title>spark:e&#45;&gt;p2</title>
<path fill="none" stroke="#000000" d="M235,-131C235,-107.9466 235,-81.8112 235,-62.4822"/>
<polygon fill="#000000" stroke="#000000" points="238.5001,-62.2353 235,-52.2353 231.5001,-62.2354 238.5001,-62.2353"/>
</g>
<!-- p3 -->
<g id="node5" class="node">
<title>p3</title>
<polygon fill="none" stroke="#000000" points="454.002,-52 319.998,-52 319.998,-16 454.002,-16 454.002,-52"/>
<text text-anchor="middle" x="387" y="-30.9484" font-family="menlo" font-size="14.00" fill="#000000">Data Partition</text>
</g>
<!-- spark&#45;&gt;p3 -->
<g id="edge4" class="edge">
<title>spark:e&#45;&gt;p3</title>
<path fill="none" stroke="#000000" d="M288,-142C331.5665,-142 361.1526,-93.6537 375.9634,-61.6549"/>
<polygon fill="#000000" stroke="#000000" points="379.2473,-62.8824 380.0846,-52.3207 372.8437,-60.0551 379.2473,-62.8824"/>
</g>
</g>
</svg>
