<?xml version="1.0" encoding="UTF-8" standalone="no"?>
<!DOCTYPE svg PUBLIC "-//W3C//DTD SVG 1.1//EN"
 "http://www.w3.org/Graphics/SVG/1.1/DTD/svg11.dtd">
<!-- Generated by graphviz version 2.40.1 (20161225.0304)
 -->
<!-- Title: %3 Pages: 1 -->
<svg width="686pt" height="338pt"
 viewBox="0.00 0.00 686.18 338.19" xmlns="http://www.w3.org/2000/svg" xmlns:xlink="http://www.w3.org/1999/xlink">
<g id="graph0" class="graph" transform="scale(1 1) rotate(0) translate(4 334.1875)">
<title>%3</title>
<polygon fill="#ffffff" stroke="transparent" points="-4,4 -4,-334.1875 682.1797,-334.1875 682.1797,4 -4,4"/>
<g id="clust1" class="cluster">
<title>cluster_driver</title>
<polygon fill="none" stroke="#000000" points="315.832,-130.0938 315.832,-248.0938 405.9756,-248.0938 405.9756,-130.0938 315.832,-130.0938"/>
<text text-anchor="middle" x="360.9038" y="-232.8938" font-family="menlo" font-size="14.00" fill="#000000">Master</text>
</g>
<g id="clust2" class="cluster">
<title>cluster_jvm</title>
<polygon fill="none" stroke="#000000" points="323.832,-138.0938 323.832,-216.0938 397.9756,-216.0938 397.9756,-138.0938 323.832,-138.0938"/>
<text text-anchor="middle" x="360.9038" y="-200.8938" font-family="menlo" font-size="14.00" fill="#000000">JVM</text>
</g>
<g id="clust3" class="cluster">
<title>cluster_laptop</title>
<polygon fill="none" stroke="#000000" points="0,-130.0938 0,-248.0938 259.001,-248.0938 259.001,-130.0938 0,-130.0938"/>
<text text-anchor="middle" x="129.5005" y="-232.8938" font-family="menlo" font-size="14.00" fill="#000000">Your Laptop / Driver</text>
</g>
<g id="clust4" class="cluster">
<title>cluster_notebook</title>
<polygon fill="none" stroke="#000000" points="8,-138.0938 8,-216.0938 251.001,-216.0938 251.001,-138.0938 8,-138.0938"/>
<text text-anchor="middle" x="129.5005" y="-200.8938" font-family="menlo" font-size="14.00" fill="#000000">Python (e.g. in a notebook)</text>
</g>
<!-- Spark -->
<g id="node1" class="node">
<title>Spark</title>
<polygon fill="none" stroke="#000000" points="331.832,-147.0938 331.832,-183.0938 389.9756,-183.0938 389.9756,-147.0938 331.832,-147.0938"/>
<text text-anchor="middle" x="360.9038" y="-162.3938" font-family="menlo" font-size="14.00" fill="#000000">Spark</text>
</g>
<!-- e1 -->
<g id="node3" class="node">
<title>e1</title>
<polygon fill="none" stroke="#000000" points="460.748,-232.5 460.748,-329.6875 678.1797,-329.6875 678.1797,-232.5 460.748,-232.5"/>
<text text-anchor="middle" x="502.4629" y="-278.0422" font-family="menlo" font-size="14.00" fill="#000000">Executor</text>
<polyline fill="none" stroke="#000000" points="544.1777,-232.5 544.1777,-329.6875 "/>
<text text-anchor="middle" x="611.1787" y="-314.4875" font-family="menlo" font-size="14.00" fill="#000000">data partition</text>
<polyline fill="none" stroke="#000000" points="544.1777,-305.3906 678.1797,-305.3906 "/>
<text text-anchor="middle" x="611.1787" y="-290.1906" font-family="menlo" font-size="14.00" fill="#000000">data partition</text>
<polyline fill="none" stroke="#000000" points="544.1777,-281.0938 678.1797,-281.0938 "/>
<text text-anchor="middle" x="611.1787" y="-265.8938" font-family="menlo" font-size="14.00" fill="#000000">data partition</text>
<polyline fill="none" stroke="#000000" points="544.1777,-256.7969 678.1797,-256.7969 "/>
<text text-anchor="middle" x="611.1787" y="-241.5969" font-family="menlo" font-size="14.00" fill="#000000">data partition</text>
</g>
<!-- Spark&#45;&gt;e1 -->
<g id="edge2" class="edge">
<title>Spark&#45;&gt;e1</title>
<path fill="none" stroke="#000000" d="M390.016,-182.3775C409.8472,-194.0592 436.7548,-209.7304 460.748,-223.0938 463.4185,-224.5811 466.1296,-226.0831 468.8684,-227.5936"/>
<polygon fill="#000000" stroke="#000000" points="467.2435,-230.6942 477.6938,-232.4381 470.6119,-224.5579 467.2435,-230.6942"/>
<text text-anchor="middle" x="428.3618" y="-214.8938" font-family="Times,serif" font-size="14.00" fill="#000000">work</text>
</g>
<!-- e2 -->
<g id="node4" class="node">
<title>e2</title>
<polygon fill="none" stroke="#000000" points="460.748,-116.5 460.748,-213.6875 678.1797,-213.6875 678.1797,-116.5 460.748,-116.5"/>
<text text-anchor="middle" x="502.4629" y="-162.0422" font-family="menlo" font-size="14.00" fill="#000000">Executor</text>
<polyline fill="none" stroke="#000000" points="544.1777,-116.5 544.1777,-213.6875 "/>
<text text-anchor="middle" x="611.1787" y="-198.4875" font-family="menlo" font-size="14.00" fill="#000000">data partition</text>
<polyline fill="none" stroke="#000000" points="544.1777,-189.3906 678.1797,-189.3906 "/>
<text text-anchor="middle" x="611.1787" y="-174.1906" font-family="menlo" font-size="14.00" fill="#000000">data partition</text>
<polyline fill="none" stroke="#000000" points="544.1777,-165.0938 678.1797,-165.0938 "/>
<text text-anchor="middle" x="611.1787" y="-149.8938" font-family="menlo" font-size="14.00" fill="#000000">data partition</text>
<polyline fill="none" stroke="#000000" points="544.1777,-140.7969 678.1797,-140.7969 "/>
<text text-anchor="middle" x="611.1787" y="-125.5969" font-family="menlo" font-size="14.00" fill="#000000">data partition</text>
</g>
<!-- Spark&#45;&gt;e2 -->
<g id="edge3" class="edge">
<title>Spark&#45;&gt;e2</title>
<path fill="none" stroke="#000000" d="M390.343,-165.0938C406.6774,-165.0938 428.1897,-165.0938 450.619,-165.0938"/>
<polygon fill="#000000" stroke="#000000" points="450.6228,-168.5938 460.6228,-165.0938 450.6228,-161.5938 450.6228,-168.5938"/>
<text text-anchor="middle" x="428.3618" y="-167.8938" font-family="Times,serif" font-size="14.00" fill="#000000">work</text>
</g>
<!-- e3 -->
<g id="node5" class="node">
<title>e3</title>
<polygon fill="none" stroke="#000000" points="460.748,-.5 460.748,-97.6875 678.1797,-97.6875 678.1797,-.5 460.748,-.5"/>
<text text-anchor="middle" x="502.4629" y="-46.0422" font-family="menlo" font-size="14.00" fill="#000000">Executor</text>
<polyline fill="none" stroke="#000000" points="544.1777,-.5 544.1777,-97.6875 "/>
<text text-anchor="middle" x="611.1787" y="-82.4875" font-family="menlo" font-size="14.00" fill="#000000">data partition</text>
<polyline fill="none" stroke="#000000" points="544.1777,-73.3906 678.1797,-73.3906 "/>
<text text-anchor="middle" x="611.1787" y="-58.1906" font-family="menlo" font-size="14.00" fill="#000000">data partition</text>
<polyline fill="none" stroke="#000000" points="544.1777,-49.0938 678.1797,-49.0938 "/>
<text text-anchor="middle" x="611.1787" y="-33.8938" font-family="menlo" font-size="14.00" fill="#000000">data partition</text>
<polyline fill="none" stroke="#000000" points="544.1777,-24.7969 678.1797,-24.7969 "/>
<text text-anchor="middle" x="611.1787" y="-9.5969" font-family="menlo" font-size="14.00" fill="#000000">data partition</text>
</g>
<!-- Spark&#45;&gt;e3 -->
<g id="edge4" class="edge">
<title>Spark&#45;&gt;e3</title>
<path fill="none" stroke="#000000" d="M390.016,-147.81C409.8472,-136.1283 436.7548,-120.4571 460.748,-107.0938 463.4185,-105.6064 466.1296,-104.1044 468.8684,-102.5939"/>
<polygon fill="#000000" stroke="#000000" points="470.6119,-105.6296 477.6938,-97.7494 467.2435,-99.4933 470.6119,-105.6296"/>
<text text-anchor="middle" x="428.3618" y="-136.8938" font-family="Times,serif" font-size="14.00" fill="#000000">work</text>
</g>
<!-- pyspark -->
<g id="node2" class="node">
<title>pyspark</title>
<polygon fill="none" stroke="#000000" points="92,-147.0938 92,-183.0938 167.001,-183.0938 167.001,-147.0938 92,-147.0938"/>
<text text-anchor="middle" x="129.5005" y="-162.3938" font-family="menlo" font-size="14.00" fill="#000000">pyspark</text>
</g>
<!-- pyspark&#45;&gt;Spark -->
<g id="edge1" class="edge">
<title>pyspark&#45;&gt;Spark</title>
<path fill="none" stroke="#000000" d="M167.1944,-165.0938C209.6688,-165.0938 278.3962,-165.0938 321.5432,-165.0938"/>
<polygon fill="#000000" stroke="#000000" points="321.6652,-168.5938 331.6651,-165.0938 321.6651,-161.5938 321.6652,-168.5938"/>
<text text-anchor="middle" x="287.4165" y="-167.8938" font-family="Times,serif" font-size="14.00" fill="#000000">talks to</text>
</g>
</g>
</svg>
